<?xml version="1.0" encoding="UTF-8"?>
<svg xmlns="http://www.w3.org/2000/svg" version="1.1" width="250" height="250" viewBox="0 0 250 250"><rect x="0" y="0" width="250" height="250" fill="#ffffff"/><g transform="scale(8.621)"><g transform="translate(0,0)"><path fill-rule="evenodd" d="M8 0L8 4L10 4L10 3L11 3L11 4L12 4L12 2L11 2L11 0ZM12 0L12 1L14 1L14 3L13 3L13 4L14 4L14 5L11 5L11 6L10 6L10 7L9 7L9 5L8 5L8 7L9 7L9 8L10 8L10 7L11 7L11 6L12 6L12 8L11 8L11 9L8 9L8 10L3 10L3 9L2 9L2 8L0 8L0 10L1 10L1 12L2 12L2 13L3 13L3 12L2 12L2 11L5 11L5 12L4 12L4 13L5 13L5 14L1 14L1 13L0 13L0 18L3 18L3 20L0 20L0 21L5 21L5 19L4 19L4 18L5 18L5 17L4 17L4 16L6 16L6 17L7 17L7 16L6 16L6 15L9 15L9 13L8 13L8 12L9 12L9 10L11 10L11 11L10 11L10 13L11 13L11 12L12 12L12 13L13 13L13 12L12 12L12 11L13 11L13 10L14 10L14 8L13 8L13 6L14 6L14 7L15 7L15 8L16 8L16 10L15 10L15 11L17 11L17 13L16 13L16 12L15 12L15 15L14 15L14 16L13 16L13 15L12 15L12 16L9 16L9 18L6 18L6 19L9 19L9 20L8 20L8 22L9 22L9 23L8 23L8 25L9 25L9 26L10 26L10 28L12 28L12 29L14 29L14 27L17 27L17 28L16 28L16 29L19 29L19 28L20 28L20 29L25 29L25 28L26 28L26 29L28 29L28 28L29 28L29 22L28 22L28 23L27 23L27 24L26 24L26 23L25 23L25 22L26 22L26 18L25 18L25 17L27 17L27 21L28 21L28 19L29 19L29 14L28 14L28 12L29 12L29 10L28 10L28 11L27 11L27 12L26 12L26 9L29 9L29 8L25 8L25 9L24 9L24 8L23 8L23 9L21 9L21 6L20 6L20 3L21 3L21 2L20 2L20 0L18 0L18 2L15 2L15 1L16 1L16 0L15 0L15 1L14 1L14 0ZM9 2L9 3L10 3L10 2ZM16 3L16 4L15 4L15 5L14 5L14 6L15 6L15 7L16 7L16 6L17 6L17 7L18 7L18 9L17 9L17 10L19 10L19 12L18 12L18 13L19 13L19 14L16 14L16 16L15 16L15 18L16 18L16 17L17 17L17 15L18 15L18 17L20 17L20 18L17 18L17 19L16 19L16 21L17 21L17 22L16 22L16 23L15 23L15 22L13 22L13 21L12 21L12 20L13 20L13 19L12 19L12 20L10 20L10 22L11 22L11 23L10 23L10 24L9 24L9 25L10 25L10 26L12 26L12 25L13 25L13 26L16 26L16 23L17 23L17 22L18 22L18 23L20 23L20 21L19 21L19 19L20 19L20 20L21 20L21 19L22 19L22 18L23 18L23 19L24 19L24 18L23 18L23 16L24 16L24 17L25 17L25 15L23 15L23 16L22 16L22 14L23 14L23 12L22 12L22 11L21 11L21 9L20 9L20 6L19 6L19 5L18 5L18 3ZM16 4L16 5L17 5L17 6L18 6L18 7L19 7L19 6L18 6L18 5L17 5L17 4ZM4 8L4 9L7 9L7 8ZM12 8L12 9L11 9L11 10L12 10L12 9L13 9L13 8ZM1 9L1 10L2 10L2 9ZM19 9L19 10L20 10L20 9ZM23 9L23 10L24 10L24 11L25 11L25 10L24 10L24 9ZM6 11L6 12L5 12L5 13L6 13L6 14L5 14L5 15L6 15L6 14L8 14L8 13L6 13L6 12L8 12L8 11ZM20 11L20 13L22 13L22 12L21 12L21 11ZM24 12L24 13L26 13L26 12ZM10 14L10 15L11 15L11 14ZM26 14L26 16L27 16L27 17L28 17L28 16L27 16L27 15L28 15L28 14ZM1 15L1 16L2 16L2 17L3 17L3 18L4 18L4 17L3 17L3 16L4 16L4 15L3 15L3 16L2 16L2 15ZM12 16L12 17L10 17L10 18L9 18L9 19L11 19L11 18L12 18L12 17L13 17L13 18L14 18L14 17L13 17L13 16ZM21 16L21 18L20 18L20 19L21 19L21 18L22 18L22 16ZM14 19L14 21L15 21L15 19ZM17 19L17 20L18 20L18 19ZM6 20L6 21L7 21L7 20ZM18 21L18 22L19 22L19 21ZM21 21L21 24L24 24L24 21ZM22 22L22 23L23 23L23 22ZM12 23L12 24L11 24L11 25L12 25L12 24L13 24L13 25L15 25L15 23L14 23L14 24L13 24L13 23ZM18 24L18 25L17 25L17 26L18 26L18 28L19 28L19 27L20 27L20 28L23 28L23 27L24 27L24 28L25 28L25 25L26 25L26 24L25 24L25 25L22 25L22 26L23 26L23 27L21 27L21 26L20 26L20 25L19 25L19 24ZM27 24L27 26L26 26L26 28L27 28L27 26L28 26L28 24ZM8 27L8 29L9 29L9 27ZM12 27L12 28L13 28L13 27ZM0 0L0 7L7 7L7 0ZM1 1L1 6L6 6L6 1ZM2 2L2 5L5 5L5 2ZM22 0L22 7L29 7L29 0ZM23 1L23 6L28 6L28 1ZM24 2L24 5L27 5L27 2ZM0 22L0 29L7 29L7 22ZM1 23L1 28L6 28L6 23ZM2 24L2 27L5 27L5 24Z" fill="#000000"/></g></g></svg>
