<?xml version="1.0" encoding="UTF-8"?>
<svg xmlns="http://www.w3.org/2000/svg" version="1.1" width="250" height="250" viewBox="0 0 250 250"><rect x="0" y="0" width="250" height="250" fill="#ffffff"/><g transform="scale(8.621)"><g transform="translate(0,0)"><path fill-rule="evenodd" d="M8 0L8 1L9 1L9 2L8 2L8 5L9 5L9 4L11 4L11 5L10 5L10 10L9 10L9 8L8 8L8 9L7 9L7 8L6 8L6 9L7 9L7 10L6 10L6 11L9 11L9 13L8 13L8 12L5 12L5 11L4 11L4 12L3 12L3 10L5 10L5 9L4 9L4 8L0 8L0 9L2 9L2 13L1 13L1 10L0 10L0 14L1 14L1 15L0 15L0 16L2 16L2 17L1 17L1 18L0 18L0 19L1 19L1 18L3 18L3 19L2 19L2 20L1 20L1 21L7 21L7 20L6 20L6 19L7 19L7 18L6 18L6 19L5 19L5 20L3 20L3 19L4 19L4 18L3 18L3 17L4 17L4 16L5 16L5 17L7 17L7 16L6 16L6 15L7 15L7 14L6 14L6 13L8 13L8 15L9 15L9 14L10 14L10 13L11 13L11 16L12 16L12 17L13 17L13 16L12 16L12 14L13 14L13 12L14 12L14 17L15 17L15 18L13 18L13 21L15 21L15 20L17 20L17 21L18 21L18 20L19 20L19 22L18 22L18 24L17 24L17 25L16 25L16 23L17 23L17 22L16 22L16 23L15 23L15 22L14 22L14 23L9 23L9 25L8 25L8 29L10 29L10 28L9 28L9 26L10 26L10 25L11 25L11 26L12 26L12 28L11 28L11 29L12 29L12 28L14 28L14 27L15 27L15 28L16 28L16 29L17 29L17 27L18 27L18 28L19 28L19 29L21 29L21 28L22 28L22 29L25 29L25 28L26 28L26 29L28 29L28 27L29 27L29 23L28 23L28 22L29 22L29 20L28 20L28 19L25 19L25 18L24 18L24 17L25 17L25 16L26 16L26 15L27 15L27 16L29 16L29 11L28 11L28 10L29 10L29 8L28 8L28 9L27 9L27 8L24 8L24 9L22 9L22 8L20 8L20 7L21 7L21 5L20 5L20 4L21 4L21 3L20 3L20 2L21 2L21 0L18 0L18 1L20 1L20 2L19 2L19 4L18 4L18 3L17 3L17 4L16 4L16 5L19 5L19 6L18 6L18 7L17 7L17 6L16 6L16 7L15 7L15 6L14 6L14 4L15 4L15 3L14 3L14 1L13 1L13 0L12 0L12 1L11 1L11 0L10 0L10 1L9 1L9 0ZM15 0L15 1L17 1L17 0ZM11 2L11 4L12 4L12 3L13 3L13 4L14 4L14 3L13 3L13 2ZM12 5L12 6L11 6L11 8L12 8L12 6L13 6L13 10L14 10L14 11L15 11L15 12L17 12L17 13L16 13L16 14L15 14L15 15L16 15L16 16L18 16L18 15L17 15L17 13L19 13L19 12L18 12L18 11L17 11L17 10L18 10L18 9L17 9L17 10L14 10L14 8L15 8L15 7L14 7L14 6L13 6L13 5ZM8 6L8 7L9 7L9 6ZM19 6L19 7L18 7L18 8L19 8L19 7L20 7L20 6ZM11 9L11 10L12 10L12 9ZM19 9L19 11L20 11L20 12L21 12L21 13L20 13L20 16L21 16L21 17L22 17L22 18L21 18L21 19L22 19L22 20L25 20L25 23L26 23L26 24L28 24L28 23L27 23L27 22L28 22L28 20L25 20L25 19L23 19L23 15L22 15L22 14L21 14L21 13L23 13L23 14L25 14L25 15L26 15L26 14L25 14L25 13L27 13L27 12L28 12L28 11L27 11L27 9L26 9L26 10L25 10L25 11L24 11L24 10L23 10L23 11L22 11L22 10L20 10L20 9ZM11 11L11 13L12 13L12 12L13 12L13 11ZM23 11L23 12L24 12L24 11ZM4 12L4 13L3 13L3 14L4 14L4 15L2 15L2 16L4 16L4 15L5 15L5 14L4 14L4 13L5 13L5 12ZM27 14L27 15L28 15L28 14ZM8 16L8 18L11 18L11 17L10 17L10 16ZM16 17L16 18L17 18L17 19L19 19L19 20L20 20L20 17ZM28 17L28 18L29 18L29 17ZM8 19L8 20L9 20L9 21L8 21L8 22L10 22L10 21L11 21L11 20L12 20L12 19L11 19L11 20L10 20L10 19ZM21 21L21 24L24 24L24 21ZM22 22L22 23L23 23L23 22ZM12 24L12 26L13 26L13 27L14 27L14 26L15 26L15 27L17 27L17 26L16 26L16 25L15 25L15 24ZM18 24L18 26L19 26L19 25L20 25L20 24ZM13 25L13 26L14 26L14 25ZM22 25L22 26L21 26L21 27L23 27L23 25ZM24 25L24 27L25 27L25 25ZM27 25L27 26L26 26L26 28L27 28L27 27L28 27L28 25ZM19 27L19 28L20 28L20 27ZM0 0L0 7L7 7L7 0ZM1 1L1 6L6 6L6 1ZM2 2L2 5L5 5L5 2ZM22 0L22 7L29 7L29 0ZM23 1L23 6L28 6L28 1ZM24 2L24 5L27 5L27 2ZM0 22L0 29L7 29L7 22ZM1 23L1 28L6 28L6 23ZM2 24L2 27L5 27L5 24Z" fill="#000000"/></g></g></svg>
